<?xml version="1.0" standalone="no"?>
<!DOCTYPE svg PUBLIC "-//W3C//DTD SVG 20010904//EN"
 "http://www.w3.org/TR/2001/REC-SVG-20010904/DTD/svg10.dtd">
<svg version="1.0" xmlns="http://www.w3.org/2000/svg"
 width="1024.000000pt" height="1024.000000pt" viewBox="0 0 1024.000000 1024.000000"
 preserveAspectRatio="xMidYMid meet">

<g transform="translate(0.000000,1024.000000) scale(0.100000,-0.100000)"
fill="#000000" stroke="none">
<path d="M3493 8631 c-3 -11 -12 -21 -19 -21 -8 0 -14 -7 -14 -15 0 -10 -11
-15 -35 -15 -28 0 -35 -4 -35 -20 0 -13 -7 -20 -20 -20 -11 0 -20 -7 -20 -15
0 -8 -7 -15 -15 -15 -8 0 -15 -9 -15 -20 0 -11 -7 -20 -15 -20 -8 0 -15 -7
-15 -15 0 -8 -9 -15 -20 -15 -13 0 -20 -7 -20 -20 0 -11 -7 -20 -15 -20 -8 0
-15 -7 -15 -15 0 -8 -9 -15 -20 -15 -13 0 -20 -7 -20 -20 0 -11 -7 -20 -15
-20 -8 0 -15 -7 -15 -15 0 -8 -9 -15 -20 -15 -11 0 -20 -7 -20 -15 0 -8 -7
-15 -15 -15 -8 0 -15 -9 -15 -20 0 -13 -7 -20 -20 -20 -11 0 -20 -7 -20 -15 0
-8 -7 -15 -15 -15 -8 0 -15 -9 -15 -20 0 -11 -7 -20 -15 -20 -8 0 -15 -7 -15
-15 0 -8 -9 -15 -20 -15 -13 0 -20 -7 -20 -20 0 -11 -7 -20 -15 -20 -8 0 -15
-7 -15 -15 0 -8 -9 -15 -20 -15 -13 0 -20 -7 -20 -20 0 -11 -7 -20 -15 -20
-10 0 -15 -11 -15 -35 0 -28 -4 -35 -20 -35 -11 0 -20 -7 -20 -15 0 -8 -7 -15
-15 -15 -8 0 -15 -6 -15 -14 0 -7 -9 -16 -20 -19 -11 -3 -20 -12 -20 -21 0 -9
-7 -16 -15 -16 -10 0 -15 -11 -15 -35 0 -28 -4 -35 -20 -35 -11 0 -20 -7 -20
-15 0 -8 -7 -15 -15 -15 -8 0 -15 -9 -15 -20 0 -11 -7 -20 -15 -20 -10 0 -15
-11 -15 -35 0 -28 -4 -35 -20 -35 -11 0 -20 -7 -20 -15 0 -8 -7 -15 -15 -15
-10 0 -15 -11 -15 -35 0 -28 -4 -35 -20 -35 -11 0 -20 -7 -20 -15 0 -8 -7 -15
-15 -15 -10 0 -15 -10 -15 -34 0 -25 -5 -35 -20 -39 -11 -3 -20 -12 -20 -21 0
-9 -7 -16 -15 -16 -10 0 -15 -11 -15 -35 0 -28 -4 -35 -20 -35 -11 0 -20 -7
-20 -15 0 -8 -7 -15 -15 -15 -10 0 -15 -10 -15 -34 0 -26 -5 -35 -21 -39 -18
-5 -20 -11 -14 -36 6 -27 4 -31 -14 -31 -17 0 -21 -6 -21 -35 0 -24 -5 -35
-15 -35 -10 0 -15 -11 -15 -35 0 -28 -4 -35 -20 -35 -16 0 -20 -7 -20 -35 0
-24 -5 -35 -15 -35 -10 0 -15 -11 -15 -35 0 -28 -4 -35 -20 -35 -16 0 -20 -7
-20 -35 0 -24 -5 -35 -15 -35 -10 0 -15 -10 -15 -29 0 -20 -6 -30 -20 -34 -17
-4 -20 -14 -20 -56 0 -39 -4 -51 -15 -51 -10 0 -15 -11 -15 -35 0 -28 -4 -35
-20 -35 -17 0 -20 -7 -20 -50 0 -38 -4 -50 -15 -50 -11 0 -15 -12 -15 -50 0
-36 -4 -50 -14 -50 -17 0 -26 -44 -19 -98 5 -38 4 -42 -16 -42 -20 0 -21 -5
-21 -85 0 -69 -3 -85 -15 -85 -12 0 -15 -18 -15 -105 0 -98 -1 -105 -20 -105
-20 0 -20 -7 -20 -294 0 -285 1 -294 20 -299 18 -5 20 -14 20 -106 0 -83 3
-101 15 -101 12 0 15 -16 15 -84 0 -77 2 -84 21 -89 20 -5 21 -10 15 -57 -8
-62 1 -120 20 -120 11 0 14 -19 14 -85 0 -69 3 -85 15 -85 12 0 15 -14 15 -66
0 -57 3 -67 20 -71 18 -5 20 -14 20 -109 0 -86 3 -104 15 -104 12 0 15 -16 15
-85 0 -78 2 -85 20 -85 19 0 20 -7 20 -105 0 -87 3 -105 15 -105 12 0 15 -18
15 -100 0 -93 1 -100 20 -100 19 0 20 -7 20 -120 0 -100 3 -120 15 -120 13 0
15 -26 15 -175 0 -168 1 -175 20 -175 20 0 20 -7 20 -290 0 -283 0 -290 -20
-290 -19 0 -20 -7 -20 -105 0 -87 -3 -105 -15 -105 -12 0 -15 -14 -15 -70 0
-63 -2 -70 -20 -70 -16 0 -20 -7 -20 -30 0 -20 -5 -30 -15 -30 -8 0 -15 -9
-15 -20 0 -13 -7 -20 -20 -20 -11 0 -20 -7 -20 -15 0 -11 -12 -15 -50 -15 -43
0 -50 -3 -50 -20 0 -17 -7 -20 -50 -20 -38 0 -50 -4 -50 -15 0 -8 -9 -15 -20
-15 -13 0 -20 -7 -20 -20 0 -16 -7 -20 -35 -20 -33 0 -35 -2 -35 -35 0 -24 -5
-35 -15 -35 -10 0 -15 -11 -15 -35 0 -29 -4 -35 -20 -35 -19 0 -21 -5 -18 -67
l3 -68 2453 -3 c2175 -2 2452 0 2452 13 0 12 16 15 86 15 77 0 86 2 91 20 5
17 14 20 69 20 50 0 64 3 64 15 0 11 12 15 51 15 42 0 52 3 56 20 4 17 14 20
54 20 37 0 49 4 49 15 0 10 11 15 35 15 28 0 35 4 35 20 0 16 7 20 35 20 24 0
35 5 35 15 0 10 11 15 35 15 28 0 35 4 35 20 0 16 7 20 35 20 24 0 35 5 35 15
0 10 11 15 35 15 24 0 35 5 35 15 0 8 7 15 15 15 8 0 15 9 15 20 0 16 7 20 35
20 24 0 35 5 35 15 0 8 7 15 16 15 9 0 18 9 21 20 4 14 14 20 34 20 19 0 29 5
29 15 0 8 7 15 16 15 9 0 18 9 21 20 3 11 12 20 19 20 8 0 14 7 14 15 0 8 9
15 20 15 13 0 20 7 20 20 0 11 7 20 15 20 8 0 15 7 15 15 0 8 9 15 20 15 13 0
20 7 20 20 0 11 7 20 15 20 8 0 15 7 15 15 0 8 9 15 20 15 11 0 20 7 20 15 0
8 7 15 15 15 8 0 15 9 15 20 0 11 7 20 15 20 9 0 18 7 21 15 4 8 12 15 20 15
8 0 14 9 14 20 0 11 7 20 15 20 8 0 15 7 15 15 0 8 9 15 20 15 16 0 20 7 20
35 0 24 5 35 15 35 8 0 15 9 15 20 0 13 7 20 20 20 16 0 20 7 20 35 0 24 5 35
15 35 8 0 15 7 15 15 0 8 9 15 20 15 16 0 20 7 20 35 0 24 5 35 15 35 10 0 15
11 15 35 0 28 4 35 20 35 16 0 20 7 20 35 0 24 5 35 15 35 10 0 15 11 15 35 0
29 4 35 20 35 18 0 20 4 14 35 -5 31 -4 35 15 35 19 0 21 6 21 50 0 38 4 50
15 50 11 0 15 12 15 50 0 43 3 50 20 50 18 0 20 7 20 55 0 42 3 55 15 55 12 0
15 16 15 85 0 78 2 85 20 85 20 0 20 7 20 400 0 393 0 400 -20 400 -18 0 -20
7 -20 85 0 69 -3 85 -15 85 -11 0 -15 12 -15 51 0 42 -3 52 -20 56 -17 4 -20
14 -20 54 0 37 -4 49 -15 49 -11 0 -15 12 -15 50 0 44 -2 50 -21 50 -19 0 -21
4 -15 31 5 25 2 32 -14 36 -15 4 -20 14 -20 39 0 24 -5 34 -15 34 -10 0 -15
11 -15 35 0 28 -4 35 -20 35 -16 0 -20 7 -20 35 0 24 -5 35 -15 35 -10 0 -15
10 -15 31 0 22 -5 32 -20 36 -11 3 -20 12 -20 19 0 8 -7 14 -15 14 -10 0 -15
11 -15 35 0 28 -4 35 -20 35 -13 0 -20 7 -20 20 0 11 -7 20 -15 20 -10 0 -15
10 -15 31 0 22 -5 32 -20 36 -11 3 -20 12 -20 19 0 8 -7 14 -15 14 -8 0 -15 6
-15 13 0 15 -44 57 -59 57 -6 0 -11 7 -11 15 0 8 -6 15 -14 15 -7 0 -16 9 -19
20 -3 11 -12 20 -21 20 -9 0 -16 7 -16 15 0 8 -6 15 -14 15 -7 0 -16 9 -19 20
-3 11 -12 20 -21 20 -9 0 -16 7 -16 15 0 8 -6 15 -14 15 -7 0 -16 9 -19 20 -3
11 -12 20 -21 20 -9 0 -16 7 -16 15 0 8 -6 15 -14 15 -7 0 -16 9 -19 20 -3 11
-12 20 -21 20 -9 0 -16 7 -16 15 0 10 -10 15 -29 15 -20 0 -30 6 -34 20 -3 11
-12 20 -21 20 -9 0 -16 7 -16 15 0 10 -11 15 -35 15 -24 0 -35 5 -35 15 0 8
-7 15 -15 15 -8 0 -15 9 -15 20 0 16 -7 20 -35 20 -24 0 -35 5 -35 15 0 10
-11 15 -35 15 -28 0 -35 4 -35 20 0 16 -7 20 -35 20 -24 0 -35 5 -35 15 0 10
-11 15 -35 15 -28 0 -35 4 -35 20 0 17 -7 20 -50 20 -38 0 -50 4 -50 15 0 10
-10 15 -34 15 -25 0 -35 5 -39 20 -4 17 -14 20 -56 20 -39 0 -51 4 -51 15 0
12 -14 15 -65 15 -48 0 -65 3 -65 14 0 19 -50 27 -135 19 -72 -6 -75 -5 -75
16 0 20 -5 21 -75 21 -69 0 -75 -2 -75 -21 0 -18 -4 -20 -30 -14 -26 6 -30 4
-30 -14 0 -14 -6 -21 -20 -21 -11 0 -20 -7 -20 -15 0 -8 -7 -15 -15 -15 -10 0
-15 -11 -15 -35 0 -28 -4 -35 -20 -35 -18 0 -20 -7 -20 -55 0 -48 2 -55 20
-55 18 0 20 -7 20 -55 0 -42 3 -55 15 -55 8 0 15 -7 15 -15 0 -11 12 -15 49
-15 40 0 50 -3 54 -20 5 -18 14 -20 91 -20 70 0 86 -3 86 -15 0 -12 14 -15 70
-15 65 0 70 -2 70 -21 0 -20 4 -21 65 -17 57 3 65 2 65 -14 0 -14 8 -18 34
-18 26 0 35 -5 39 -21 5 -18 11 -20 36 -14 27 6 31 4 31 -14 0 -17 6 -21 35
-21 24 0 35 -5 35 -15 0 -10 11 -15 35 -15 28 0 35 -4 35 -20 0 -16 7 -20 35
-20 24 0 35 -5 35 -15 0 -8 6 -15 14 -15 7 0 16 -9 19 -20 4 -15 14 -20 36
-20 21 0 31 -5 31 -15 0 -8 9 -15 20 -15 13 0 20 -7 20 -20 0 -11 7 -20 15
-20 8 0 15 -7 15 -15 0 -10 11 -15 35 -15 21 0 35 -5 35 -12 0 -16 44 -58 59
-58 6 0 11 -7 11 -15 0 -8 7 -15 15 -15 8 0 15 -9 15 -20 0 -13 7 -20 20 -20
11 0 20 -7 20 -15 0 -8 6 -15 14 -15 7 0 16 -9 19 -20 3 -11 12 -20 21 -20 12
0 16 -10 16 -35 0 -24 5 -35 15 -35 8 0 15 -7 15 -15 0 -8 9 -15 20 -15 13 0
20 -7 20 -20 0 -11 7 -20 15 -20 8 0 15 -7 15 -15 0 -9 9 -15 21 -15 18 0 20
-4 14 -31 -6 -25 -4 -31 14 -36 16 -4 21 -13 21 -39 0 -24 5 -34 15 -34 8 0
15 -7 15 -15 0 -8 9 -15 20 -15 16 0 20 -7 20 -35 0 -24 5 -35 15 -35 10 0 15
-11 15 -35 0 -28 4 -35 20 -35 17 0 20 -7 20 -50 0 -38 4 -50 15 -50 12 0 15
-13 15 -55 0 -48 2 -55 20 -55 18 0 20 -7 20 -70 0 -56 3 -70 15 -70 12 0 15
-16 15 -85 0 -78 2 -85 20 -85 19 0 20 -7 20 -220 0 -213 -1 -220 -20 -220
-19 0 -20 -7 -20 -105 0 -87 -3 -105 -15 -105 -11 0 -15 -12 -15 -50 0 -43 -3
-50 -20 -50 -18 0 -20 -7 -20 -55 0 -42 -3 -55 -15 -55 -11 0 -15 -12 -15 -50
0 -43 -3 -50 -20 -50 -16 0 -20 -7 -20 -35 0 -24 -5 -35 -15 -35 -10 0 -15
-11 -15 -35 0 -29 -4 -35 -21 -35 -19 0 -20 -4 -15 -35 6 -31 4 -35 -14 -35
-11 0 -20 -6 -20 -14 0 -7 -9 -16 -21 -19 -18 -5 -20 -11 -14 -36 6 -27 4 -31
-14 -31 -12 0 -21 -6 -21 -15 0 -8 -7 -15 -15 -15 -10 0 -15 -11 -15 -35 0
-25 -4 -35 -16 -35 -9 0 -18 -9 -21 -20 -3 -11 -12 -20 -19 -20 -8 0 -14 -7
-14 -15 0 -8 -9 -15 -20 -15 -13 0 -20 -7 -20 -20 0 -11 -7 -20 -15 -20 -8 0
-15 -7 -15 -15 0 -8 -7 -15 -16 -15 -9 0 -18 -9 -21 -20 -3 -11 -12 -20 -19
-20 -8 0 -14 -7 -14 -15 0 -8 -5 -15 -11 -15 -15 0 -59 -42 -59 -57 0 -7 -7
-13 -15 -13 -8 0 -15 -7 -15 -15 0 -8 -7 -15 -16 -15 -9 0 -18 -9 -21 -20 -4
-15 -14 -20 -39 -20 -24 0 -34 -5 -34 -15 0 -8 -7 -15 -15 -15 -8 0 -15 -9
-15 -20 0 -16 -7 -20 -35 -20 -24 0 -35 -5 -35 -15 0 -8 -7 -15 -16 -15 -9 0
-18 -9 -21 -20 -4 -15 -14 -20 -39 -20 -24 0 -34 -5 -34 -15 0 -10 -10 -15
-30 -15 -23 0 -30 -4 -30 -20 0 -16 -7 -20 -35 -20 -24 0 -35 -5 -35 -15 0
-12 -13 -15 -55 -15 -49 0 -55 -2 -55 -21 0 -17 -5 -20 -21 -16 -32 8 -79 -3
-79 -19 0 -10 -14 -14 -49 -14 -39 0 -50 -4 -53 -17 -3 -15 -16 -17 -106 -14
-98 2 -102 2 -102 -18 0 -19 -6 -21 -64 -21 -55 0 -64 3 -69 20 -3 11 -12 20
-21 20 -11 0 -16 9 -16 30 0 23 4 30 20 30 17 0 20 7 20 50 0 38 4 50 15 50
12 0 15 13 15 55 0 48 2 55 20 55 18 0 20 7 20 65 0 51 3 65 15 65 12 0 15 14
15 70 0 63 2 70 20 70 19 0 20 7 20 105 0 87 3 105 15 105 13 0 15 32 15 224
0 220 0 224 21 229 15 4 20 11 15 22 -3 9 -6 23 -6 31 0 8 -7 14 -15 14 -13 0
-15 32 -15 225 0 193 -2 225 -15 225 -12 0 -15 16 -15 85 0 78 -2 85 -20 85
-18 0 -20 7 -20 70 0 56 -3 70 -15 70 -12 0 -15 14 -15 70 0 63 -2 70 -20 70
-16 0 -20 7 -20 35 0 24 -5 35 -15 35 -11 0 -15 12 -15 50 0 43 -3 50 -20 50
-16 0 -20 7 -20 35 0 24 -5 35 -15 35 -11 0 -15 12 -15 51 0 42 -3 52 -20 56
-15 4 -20 14 -20 39 0 24 -5 34 -15 34 -8 0 -15 7 -15 15 0 9 -9 15 -21 15
-18 0 -20 4 -14 31 6 25 4 31 -14 36 -16 4 -21 13 -21 39 0 24 -5 34 -15 34
-8 0 -15 7 -15 15 0 8 -9 15 -20 15 -16 0 -20 7 -20 35 0 24 -5 35 -15 35 -8
0 -15 7 -15 16 0 9 -9 18 -20 21 -15 4 -20 14 -20 39 0 24 -5 34 -15 34 -8 0
-15 7 -15 15 0 8 -9 15 -20 15 -11 0 -20 7 -20 15 0 8 -7 15 -15 15 -8 0 -15
9 -15 20 0 13 -7 20 -20 20 -11 0 -20 7 -20 15 0 8 -7 15 -15 15 -8 0 -15 9
-15 20 0 11 -6 20 -14 20 -9 0 -16 12 -18 33 -3 28 -7 32 -35 35 -21 2 -33 9
-33 18 0 8 -9 14 -20 14 -13 0 -20 7 -20 20 0 11 -7 20 -15 20 -8 0 -15 7 -15
15 0 8 -9 15 -20 15 -13 0 -20 7 -20 20 0 11 -7 20 -15 20 -8 0 -15 7 -15 15
0 8 -9 15 -20 15 -11 0 -20 7 -20 15 0 10 -11 15 -35 15 -28 0 -35 4 -35 20 0
11 -7 20 -15 20 -8 0 -15 7 -15 15 0 10 -11 15 -35 15 -28 0 -35 4 -35 20 0
11 -7 20 -15 20 -8 0 -15 7 -15 15 0 10 -10 15 -34 15 -25 0 -35 5 -39 20 -3
11 -12 20 -21 20 -9 0 -16 7 -16 15 0 10 -11 15 -35 15 -28 0 -35 4 -35 20 0
16 -7 20 -35 20 -24 0 -35 5 -35 15 0 10 -10 15 -29 15 -21 0 -30 6 -34 21 -5
18 -11 20 -36 14 -27 -6 -31 -4 -31 14 0 19 -6 21 -55 21 -42 0 -55 3 -55 15
0 10 -11 15 -35 15 -28 0 -35 4 -35 20 0 17 -7 20 -50 20 -38 0 -50 4 -50 15
0 11 -12 15 -49 15 -40 0 -50 3 -54 20 -4 17 -14 20 -71 20 -52 0 -66 3 -66
15 0 12 -16 15 -84 15 -75 0 -84 2 -89 20 -3 11 -12 20 -21 20 -9 0 -16 7 -16
15 0 8 -6 15 -14 15 -7 0 -16 9 -19 20 -3 11 -12 20 -21 20 -13 0 -16 12 -16
65 0 58 2 65 20 65 17 0 20 7 20 50 0 38 4 50 15 50 8 0 15 6 15 14 0 7 9 16
20 19 11 3 20 12 20 21 0 9 7 16 15 16 8 0 15 6 15 14 0 7 9 16 20 19 11 3 20
12 20 21 0 9 7 16 15 16 8 0 15 7 15 15 0 10 10 15 31 15 22 0 32 5 36 20 4
15 14 20 39 20 24 0 34 5 34 15 0 8 7 15 15 15 8 0 15 9 15 20 0 13 7 20 20
20 16 0 20 7 20 35 0 24 5 35 15 35 10 0 15 11 15 35 0 28 4 35 20 35 16 0 20
7 20 30 0 20 5 30 15 30 12 0 15 14 15 69 0 59 3 69 19 74 17 4 19 14 16 108
-2 86 -5 105 -19 107 -9 2 -16 10 -16 18 0 8 -6 14 -14 14 -7 0 -16 9 -19 20
-3 11 -12 20 -21 20 -9 0 -16 7 -16 15 0 8 -7 15 -15 15 -8 0 -15 7 -15 15 0
8 -9 15 -20 15 -16 0 -20 7 -20 35 0 24 -5 35 -15 35 -11 0 -15 12 -15 51 0
42 -3 52 -20 56 -17 5 -20 14 -20 69 0 50 -3 64 -15 64 -12 0 -15 14 -15 70 0
63 -2 70 -20 70 -13 0 -20 7 -20 20 0 11 -7 20 -15 20 -8 0 -15 7 -15 15 0 8
-9 15 -20 15 -13 0 -20 7 -20 20 0 11 -7 20 -15 20 -8 0 -15 7 -15 15 0 8 -6
15 -14 15 -7 0 -16 9 -19 20 -4 15 -14 20 -36 20 -21 0 -31 5 -31 15 0 10 -10
15 -34 15 -25 0 -35 5 -39 20 -3 11 -12 20 -21 20 -9 0 -16 7 -16 15 0 11 -12
15 -50 15 -38 0 -50 4 -50 15 0 10 -11 15 -35 15 -28 0 -35 4 -35 20 0 18 -7
20 -70 20 -56 0 -70 3 -70 15 0 8 -7 15 -15 15 -13 0 -15 22 -15 140 0 133 -1
140 -20 140 -18 0 -20 7 -20 70 0 56 -3 70 -15 70 -11 0 -15 12 -15 50 0 43
-3 50 -20 50 -11 0 -20 7 -20 15 0 8 -8 15 -19 15 -10 0 -33 3 -50 6 -27 6
-33 3 -38 -15z"/>
</g>
</svg>
